<svg width="38" height="38" viewBox="0 0 38 38" fill="none" xmlns="http://www.w3.org/2000/svg">
<path d="M28.5502 9.65H28.5672M10.7002 2H27.7002C32.3946 2 36.2002 5.80558 36.2002 10.5V27.5C36.2002 32.1944 32.3946 36 27.7002 36H10.7002C6.00577 36 2.2002 32.1944 2.2002 27.5V10.5C2.2002 5.80558 6.00577 2 10.7002 2ZM26.0002 17.929C26.21 19.3438 25.9683 20.7888 25.3096 22.0583C24.6508 23.3279 23.6085 24.3574 22.331 25.0004C21.0534 25.6435 19.6056 25.8673 18.1934 25.6401C16.7813 25.4129 15.4768 24.7461 14.4654 23.7348C13.4541 22.7234 12.7873 21.4189 12.5601 20.0068C12.3329 18.5946 12.5567 17.1468 13.1998 15.8692C13.8428 14.5917 14.8723 13.5494 16.1419 12.8906C17.4114 12.2319 18.8564 11.9902 20.2712 12.2C21.7144 12.414 23.0504 13.0865 24.0821 14.1181C25.1137 15.1498 25.7862 16.4858 26.0002 17.929Z" stroke="#1E1E1E" stroke-width="3" stroke-linecap="round" stroke-linejoin="round"/>
</svg>
