<svg width="38" height="34" viewBox="0 0 38 34" fill="none" xmlns="http://www.w3.org/2000/svg">
<path d="M36.2002 2.01681C34.7202 3.14614 33.0816 4.0099 31.3475 4.57482C30.4167 3.41704 29.1797 2.59645 27.8038 2.224C26.4279 1.85156 24.9794 1.94525 23.6543 2.49239C22.3292 3.03953 21.1914 4.01373 20.3948 5.28323C19.5982 6.55272 19.1812 8.05627 19.2002 9.59051V11.2624C16.4843 11.3386 13.7931 10.687 11.3663 9.36555C8.93953 8.04414 6.8525 6.09396 5.2911 3.68871C5.2911 3.68871 -0.890714 18.7358 13.0184 25.4234C9.83556 27.7606 6.04398 28.9326 2.2002 28.7672C16.1093 37.1267 33.1093 28.7672 33.1093 9.54035C33.1079 9.07465 33.0665 8.6101 32.9856 8.15268C34.5629 6.4699 35.676 4.34529 36.2002 2.01681Z" stroke="#1E1E1E" stroke-width="3" stroke-linecap="round" stroke-linejoin="round"/>
</svg>
