<svg width="38" height="32" viewBox="0 0 38 32" fill="none" xmlns="http://www.w3.org/2000/svg">
<path d="M35.4884 6.38292C35.3049 5.52338 34.931 4.73584 34.4046 4.09983C33.8782 3.46383 33.2179 3.00189 32.4904 2.76067C29.8324 2 19.2002 2 19.2002 2C19.2002 2 8.56802 2 5.90998 2.83312C5.18249 3.07433 4.5222 3.53627 3.99579 4.17228C3.46939 4.80828 3.09552 5.59583 2.91195 6.45537C2.42549 9.61679 2.18753 12.8238 2.20108 16.0362C2.18374 19.2728 2.42171 22.5043 2.91195 25.6895C3.11433 26.5224 3.49658 27.28 4.02175 27.8891C4.54693 28.4982 5.19728 28.9383 5.90998 29.1669C8.56802 30 19.2002 30 19.2002 30C19.2002 30 29.8324 30 32.4904 29.1669C33.2179 28.9257 33.8782 28.4637 34.4046 27.8277C34.931 27.1917 35.3049 26.4042 35.4884 25.5446C35.9711 22.407 36.2091 19.2244 36.1993 16.0362C36.2167 12.7997 35.9787 9.56815 35.4884 6.38292Z" stroke="#1E1E1E" stroke-width="3" stroke-linecap="round" stroke-linejoin="round"/>
<path d="M15.7231 21.9586L24.609 16.0362L15.7231 10.1138V21.9586Z" stroke="#1E1E1E" stroke-width="3" stroke-linecap="round" stroke-linejoin="round"/>
</svg>
