<svg width="80" height="77" viewBox="0 0 80 77" fill="none" xmlns="http://www.w3.org/2000/svg">
<path d="M71.9798 65.4081C70.6116 67.644 67.2612 69.2375 67.2612 69.2375L42.3411 80.8369V72.2804L60.6811 63.8104C62.7621 62.8469 63.0802 61.4798 61.3907 60.7634C59.7011 60.0469 56.6434 60.2487 54.5593 61.2204L42.3411 66.7957V57.9222L43.0443 57.6093C43.0443 57.6093 46.5761 55.991 51.5397 55.2787C56.5066 54.5704 62.5871 55.3775 67.3598 57.7204C72.7371 59.9234 73.3416 63.1722 71.9798 65.4081ZM44.7115 50.8398V28.971C44.7115 26.4016 44.3456 24.0381 42.4843 23.371C41.062 22.7781 40.1774 24.491 40.1774 27.0563V81.8334L28.7769 77.1434V11.8334C33.6229 12.9987 40.6865 15.7575 44.4824 17.4128C54.1393 21.7075 57.4134 27.0563 57.4134 39.1004C57.4134 50.8398 51.8197 55.291 44.7115 50.844M7.8564 71.391C2.33275 69.3734 1.4132 65.1734 3.93003 62.7563C6.25594 60.5246 10.2141 58.8446 10.2141 58.8446L26.5624 51.3093V59.8987L14.796 65.3545C12.7182 66.3181 12.4001 67.6851 14.0864 68.4016C15.7792 69.1222 18.8369 68.9163 20.9178 67.9487L26.5624 65.2969V72.9763L25.436 73.2234C19.7914 74.4175 13.781 73.9193 7.8564 71.391Z" fill="#F2F2F2"/>
</svg>
